<svg width="72" height="72" viewBox="0 0 72 72" fill="none" xmlns="http://www.w3.org/2000/svg">
<g filter="url(#filter0_d_687_85)">
<path d="M36.7669 20.7662C36.8659 20.7717 36.9649 20.7772 37.0669 20.7829C38.4577 20.8666 39.8179 21.024 41.1765 21.3259C41.2825 21.3488 41.3885 21.3718 41.4978 21.3954C43.9006 21.9666 46.1189 22.9939 48.3224 24.049C48.6016 24.1814 48.8809 24.3138 49.1603 24.4459C49.7095 24.7059 50.2585 24.9664 50.8073 25.2272C51.7361 25.668 52.6691 26.1 53.6035 26.5298C55.2097 27.2707 56.8122 28.0188 58.4139 28.7684C60.1233 29.5683 61.8327 30.368 63.544 31.1642C63.7331 31.2522 63.9222 31.3403 64.1113 31.4284C64.2439 31.4903 64.2439 31.4903 64.3792 31.5533C64.4553 31.5888 64.5315 31.6243 64.6099 31.6609C65.7355 32.183 66.8663 32.6884 68 33.1955C68 36.6356 68 40.0758 68 43.6201C67.4504 43.4445 66.9887 43.2862 66.4798 43.0454C66.2857 42.9541 66.2857 42.9541 66.0877 42.8609C65.9493 42.7951 65.8109 42.7294 65.6683 42.6616C65.5226 42.5929 65.3769 42.5242 65.2269 42.4534C64.9153 42.3064 64.6039 42.1592 64.2926 42.0118C63.4801 41.627 62.6667 41.2439 61.8535 40.8605C61.6944 40.7854 61.5352 40.7103 61.3713 40.633C60.2253 40.0924 59.0771 39.5563 57.9259 39.0259C56.5076 38.3721 55.0918 37.7135 53.6771 37.0523C53.3262 36.8883 52.9753 36.7244 52.6244 36.5605C52.5093 36.5067 52.3943 36.453 52.2758 36.3977C52.1613 36.3442 52.0467 36.2906 51.9286 36.2355C51.268 35.9269 50.6073 35.6183 49.9468 35.3094C48.8061 34.7761 47.6642 34.245 46.5206 33.7175C46.1484 33.5457 45.7767 33.3731 45.4054 33.1998C40.5566 30.94 35.7762 29.7865 30.5142 31.5176C28.5724 32.1947 26.7309 33.1176 24.889 34.0076C23.9468 34.4628 23.0012 34.9088 22.0479 35.3423C20.5409 36.0282 19.0415 36.7286 17.5425 37.4305C17.0429 37.6644 16.5432 37.8983 16.0436 38.1322C15.9205 38.1898 15.7974 38.2474 15.6705 38.3068C14.5293 38.8407 13.3869 39.3724 12.244 39.903C12.0602 39.9883 11.8765 40.0737 11.6927 40.159C11.4163 40.2874 11.1399 40.4157 10.8634 40.5441C9.79112 41.042 8.71918 41.5407 7.64736 42.0395C7.43175 42.1399 7.21614 42.2402 7.00052 42.3405C6.7013 42.4797 6.40212 42.6189 6.10294 42.7582C5.97123 42.8194 5.97123 42.8194 5.83686 42.8819C5.43982 43.0668 5.04501 43.2541 4.65288 43.4484C4.27887 43.6201 4.27887 43.6201 4 43.6201C4 40.18 4 36.7399 4 33.1955C9.305 30.7169 9.305 30.7169 11.7386 29.587C13.2968 28.8636 14.8539 28.1379 16.4102 27.4107C17.0993 27.0888 17.7885 26.767 18.4777 26.4453C19.0211 26.1916 19.5644 25.9377 20.1076 25.6836C27.8223 22.0753 27.8223 22.0753 29.7952 21.5681C29.8884 21.5441 29.9815 21.5201 30.0775 21.4954C32.227 20.9551 34.5421 20.6367 36.7669 20.7662Z" fill="#3A9948"/>
<path d="M36.7392 21.2655L36.7378 21.2654C34.5779 21.1397 32.3159 21.4484 30.2008 21.9799C30.2003 21.98 30.1999 21.9802 30.1994 21.9803L29.92 22.0523L29.9197 22.0524L29.8762 22.0636C28.0027 22.5451 27.9923 22.5478 20.3195 26.1365C19.7761 26.3907 19.2327 26.6446 18.6892 26.8983L18.6892 26.8983L18.5206 26.9771C17.8876 27.2726 17.2547 27.5681 16.6219 27.8637M36.7392 21.2655L48.9464 24.8979C49.4954 25.1577 50.0441 25.4181 50.5927 25.6788L50.5929 25.6789C51.5243 26.1209 52.4593 26.5538 53.3941 26.9839C54.999 27.7241 56.6004 28.4717 58.202 29.2213L58.202 29.2213C59.9113 30.0211 61.6212 30.8211 63.333 31.6175C63.333 31.6175 63.333 31.6175 63.333 31.6176L63.9 31.8816L63.9001 31.8816L64.1679 32.0065L64.168 32.0065L64.3986 32.114L64.3995 32.1145C65.4305 32.5927 66.4655 33.0568 67.5 33.5196V33.5382V33.5584V33.5785V33.5987V33.6188V33.639V33.6592V33.6793V33.6995V33.7196V33.7398V33.7599V33.7801V33.8003V33.8204V33.8406V33.8607V33.8809V33.9011V33.9212V33.9414V33.9615V33.9817V34.0019V34.022V34.0422V34.0623V34.0825V34.1027V34.1228V34.143V34.1631V34.1833V34.2035V34.2236V34.2438V34.264V34.2841V34.3043V34.3245V34.3446V34.3648V34.3849V34.4051V34.4253V34.4454V34.4656V34.4858V34.5059V34.5261V34.5463V34.5664V34.5866V34.6068V34.627V34.6471V34.6673V34.6875V34.7076V34.7278V34.748V34.7681V34.7883V34.8085V34.8287V34.8488V34.869V34.8892V34.9093V34.9295V34.9497V34.9699V34.99V35.0102V35.0304V35.0506V35.0707V35.0909V35.1111V35.1313V35.1515V35.1716V35.1918V35.212V35.2322V35.2524V35.2725V35.2927V35.3129V35.3331V35.3533V35.3735V35.3936V35.4138V35.434V35.4542V35.4744V35.4946V35.5148V35.5349V35.5551V35.5753V35.5955V35.6157V35.6359V35.6561V35.6763V35.6965V35.7167V35.7369V35.757V35.7772V35.7974V35.8176V35.8378V35.858V35.8782V35.8984V35.9186V35.9388V35.959V35.9792V35.9994V36.0196V36.0398V36.06V36.0802V36.1004V36.1207V36.1409V36.1611V36.1813V36.2015V36.2217V36.2419V36.2621V36.2823V36.3025V36.3227V36.343V36.3632V36.3834V36.4036V36.4238V36.444V36.4643V36.4845V36.5047V36.5249V36.5451V36.5654V36.5856V36.6058V36.626V36.6462V36.6665V36.6867V36.7069V36.7272V36.7474V36.7676V36.7878V36.8081V36.8283V36.8485V36.8688V36.889V36.9092V36.9295V36.9497V36.97V36.9902V37.0104V37.0307V37.0509V37.0712V37.0914V37.1116V37.1319V37.1521V37.1724V37.1926V37.2129V37.2331V37.2534V37.2736V37.2939V37.3141V37.3344V37.3546V37.3749V37.3952V37.4154V37.4357V37.4559V37.4762V37.4965V37.5167V37.537V37.5572V37.5775V37.5978V37.618V37.6383V37.6586V37.6789V37.6991V37.7194V37.7397V37.76V37.7802V37.8005V37.8208V37.8411V37.8613V37.8816V37.9019V37.9222V37.9425V37.9628V37.9831V38.0033V38.0236V38.0439V38.0642V38.0845V38.1048V38.1251V38.1454V38.1657V38.186V38.2063V38.2266V38.2469V38.2672V38.2875V38.3078V38.3281V38.3484V38.3687V38.389V38.4093V38.4297V38.45V38.4703V38.4906V38.5109V38.5312V38.5516V38.5719V38.5922V38.6125V38.6329V38.6532V38.6735V38.6938V38.7142V38.7345V38.7548V38.7752V38.7955V38.8158V38.8362V38.8565V38.8769V38.8972V38.9175V38.9379V38.9582V38.9786V38.9989V39.0193V39.0396V39.06V39.0803V39.1007V39.121V39.1414V39.1618V39.1821V39.2025V39.2228V39.2432V39.2636V39.2839V39.3043V39.3247V39.345V39.3654V39.3858V39.4062V39.4265V39.4469V39.4673V39.4877V39.5081V39.5285V39.5488V39.5692V39.5896V39.61V39.6304V39.6508V39.6712V39.6916V39.712V39.7324V39.7528V39.7732V39.7936V39.814V39.8344V39.8548V39.8752V39.8956V39.916V39.9365V39.9569V39.9773V39.9977V40.0181V40.0386V40.059V40.0794V40.0998V40.1203V40.1407V40.1611V40.1816V40.202V40.2224V40.2429V40.2633V40.2837V40.3042V40.3246V40.3451V40.3655V40.386V40.4064V40.4269V40.4473V40.4678V40.4883V40.5087V40.5292V40.5496V40.5701V40.5906V40.611V40.6315V40.652V40.6724V40.6929V40.7134V40.7339V40.7544V40.7748V40.7953V40.8158V40.8363V40.8568V40.8773V40.8978V40.9183V40.9388V40.9593V40.9798V41.0003V41.0208V41.0413V41.0618V41.0823V41.1028V41.1233V41.1438V41.1643V41.1849V41.2054V41.2259V41.2464V41.2669V41.2875V41.308V41.3285V41.3491V41.3696V41.3901V41.4107V41.4312V41.4518V41.4723V41.4928V41.5134V41.5339V41.5545V41.575V41.5956V41.6162V41.6367V41.6573V41.6778V41.6984V41.719V41.7395V41.7601V41.7807V41.8013V41.8218V41.8424V41.863V41.8836V41.9042V41.9247V41.9453V41.9659V41.9865V42.0071V42.0277V42.0483V42.0689V42.0895V42.1101V42.1307V42.1513V42.1719V42.1926V42.2132V42.2338V42.2544V42.275V42.2957V42.3163V42.3369V42.3575V42.3782V42.3988V42.4194V42.4401V42.4607V42.4814V42.502V42.5227V42.5433V42.564V42.5846V42.6053V42.6259V42.6466V42.6672V42.6879V42.7086V42.7292V42.7499V42.7706V42.7913V42.8119V42.8326V42.8533V42.874V42.8947V42.9154V42.9254C67.2262 42.8272 66.9668 42.7227 66.6936 42.5935L66.6927 42.593L66.3023 42.4093L66.3006 42.4085L65.8829 42.21L65.8816 42.2094L65.4402 42.0012C65.4402 42.0012 65.4402 42.0012 65.4401 42.0012C65.1289 41.8543 64.8177 41.7072 64.5066 41.5599C63.8134 41.2317 63.1196 40.9046 62.4263 40.5777L62.0669 40.4083L62.0667 40.4082L61.5847 40.1808L61.5846 40.1807C60.4374 39.6396 59.288 39.1029 58.1353 38.5719C56.7179 37.9185 55.3029 37.2603 53.8888 36.5993L53.6823 37.0413L53.8888 36.5993L52.8359 36.1074L52.4874 35.9447L52.2758 36.3977L52.4874 35.9447L52.1402 35.7825C51.4796 35.4739 50.819 35.1653 50.1586 34.8565L50.1586 34.8565C49.0172 34.3229 47.8746 33.7915 46.73 33.2634C46.3586 33.0921 45.9876 32.9198 45.6168 32.7467L45.6166 32.7466C40.7129 30.4612 35.7918 29.255 30.3579 31.0427L30.3579 31.0426L30.3495 31.0455C28.5752 31.6642 26.8843 32.4844 25.2318 33.2859C25.0446 33.3767 24.8578 33.4673 24.6715 33.5574C23.732 34.0112 22.79 34.4556 21.841 34.8871L21.8408 34.8872C20.331 35.5743 18.8294 36.2758 17.3305 36.9777L15.8316 37.6793L16.0436 38.1322L15.8316 37.6793L15.4586 37.8539C14.318 38.3876 13.1761 38.919 12.0334 39.4495L12.0334 39.4495L11.4821 39.7055L10.6529 40.0906L10.6528 40.0906C9.58034 40.5886 8.50825 41.0873 7.43638 41.5862L6.78963 41.8871L5.89211 42.3048L5.89194 42.3049L5.62603 42.4285L5.62578 42.4287C5.24993 42.6037 4.87425 42.7817 4.5 42.9663V42.9549V42.9347V42.9146V42.8944V42.8743V42.8541V42.8339V42.8138V42.7936V42.7735V42.7533V42.7331V42.713V42.6928V42.6727V42.6525V42.6323V42.6122V42.592V42.5718V42.5517V42.5315V42.5113V42.4912V42.471V42.4509V42.4307V42.4105V42.3904V42.3702V42.35V42.3299V42.3097V42.2895V42.2694V42.2492V42.229V42.2089V42.1887V42.1685V42.1484V42.1282V42.108V42.0878V42.0677V42.0475V42.0273V42.0072V41.987V41.9668V41.9466V41.9265V41.9063V41.8861V41.8659V41.8458V41.8256V41.8054V41.7852V41.7651V41.7449V41.7247V41.7045V41.6844V41.6642V41.644V41.6238V41.6036V41.5835V41.5633V41.5431V41.5229V41.5027V41.4826V41.4624V41.4422V41.422V41.4018V41.3816V41.3614V41.3413V41.3211V41.3009V41.2807V41.2605V41.2403V41.2201V41.1999V41.1797V41.1596V41.1394V41.1192V41.099V41.0788V41.0586V41.0384V41.0182V40.998V40.9778V40.9576V40.9374V40.9172V40.897V40.8768V40.8566V40.8364V40.8162V40.796V40.7758V40.7556V40.7354V40.7152V40.695V40.6748V40.6546V40.6344V40.6142V40.594V40.5737V40.5535V40.5333V40.5131V40.4929V40.4727V40.4525V40.4323V40.412V40.3918V40.3716V40.3514V40.3312V40.311V40.2907V40.2705V40.2503V40.2301V40.2098V40.1896V40.1694V40.1492V40.1289V40.1087V40.0885V40.0683V40.048V40.0278V40.0076V39.9873V39.9671V39.9469V39.9266V39.9064V39.8862V39.8659V39.8457V39.8255V39.8052V39.785V39.7647V39.7445V39.7242V39.704V39.6838V39.6635V39.6433V39.623V39.6028V39.5825V39.5623V39.542V39.5218V39.5015V39.4813V39.461V39.4407V39.4205V39.4002V39.38V39.3597V39.3394V39.3192V39.2989V39.2787V39.2584V39.2381V39.2179V39.1976V39.1773V39.1571V39.1368V39.1165V39.0962V39.076V39.0557V39.0354V39.0151V38.9949V38.9746V38.9543V38.934V38.9137V38.8934V38.8732V38.8529V38.8326V38.8123V38.792V38.7717V38.7514V38.7311V38.7108V38.6905V38.6702V38.65V38.6297V38.6094V38.5891V38.5687V38.5484V38.5281V38.5078V38.4875V38.4672V38.4469V38.4266V38.4063V38.386V38.3657V38.3454V38.325V38.3047V38.2844V38.2641V38.2438V38.2234V38.2031V38.1828V38.1625V38.1421V38.1218V38.1015V38.0811V38.0608V38.0405V38.0201V37.9998V37.9795V37.9591V37.9388V37.9184V37.8981V37.8778V37.8574V37.8371V37.8167V37.7964V37.776V37.7557V37.7353V37.715V37.6946V37.6742V37.6539V37.6335V37.6132V37.5928V37.5724V37.5521V37.5317V37.5113V37.491V37.4706V37.4502V37.4298V37.4095V37.3891V37.3687V37.3483V37.328V37.3076V37.2872V37.2668V37.2464V37.226V37.2056V37.1852V37.1648V37.1445V37.1241V37.1037V37.0833V37.0629V37.0425V37.0221V37.0016V36.9812V36.9608V36.9404V36.92V36.8996V36.8792V36.8588V36.8383V36.8179V36.7975V36.7771V36.7567V36.7362V36.7158V36.6954V36.675V36.6545V36.6341V36.6137V36.5932V36.5728V36.5523V36.5319V36.5115V36.491V36.4706V36.4501V36.4297V36.4092V36.3888V36.3683V36.3478V36.3274V36.3069V36.2865V36.266V36.2455V36.2251V36.2046V36.1841V36.1637V36.1432V36.1227V36.1022V36.0818V36.0613V36.0408V36.0203V35.9998V35.9793V35.9589V35.9384V35.9179V35.8974V35.8769V35.8564V35.8359V35.8154V35.7949V35.7744V35.7539V35.7334V35.7128V35.6923V35.6718V35.6513V35.6308V35.6103V35.5897V35.5692V35.5487V35.5282V35.5076V35.4871V35.4666V35.446V35.4255V35.405V35.3844V35.3639V35.3433V35.3228V35.3023V35.2817V35.2612V35.2406V35.22V35.1995V35.1789V35.1584V35.1378V35.1172V35.0967V35.0761V35.0555V35.035V35.0144V34.9938V34.9732V34.9526V34.9321V34.9115V34.8909V34.8703V34.8497V34.8291V34.8085V34.7879V34.7673V34.7467V34.7261V34.7055V34.6849V34.6643V34.6437V34.6231V34.6025V34.5818V34.5612V34.5406V34.52V34.4994V34.4787V34.4581V34.4375V34.4168V34.3962V34.3756V34.3549V34.3343V34.3136V34.293V34.2723V34.2517V34.231V34.2104V34.1897V34.1691V34.1484V34.1277V34.1071V34.0864V34.0657V34.0451V34.0244V34.0037V33.983V33.9623V33.9417V33.921V33.9003V33.8796V33.8589V33.8382V33.8175V33.7968V33.7761V33.7554V33.7347V33.714V33.6933V33.6726V33.6519V33.6311V33.6104V33.5897V33.569V33.5482V33.5275V33.5138C7.91131 31.9199 9.02346 31.4004 10.1364 30.8826C10.6605 30.6388 11.1847 30.3954 11.9491 30.0405C13.5078 29.3169 15.0652 28.5911 16.6219 27.8637M36.7392 21.2655L37.0368 21.282C37.0372 21.282 37.0376 21.282 37.038 21.282C38.4107 21.3647 39.7428 21.5195 41.068 21.814L41.0707 21.8146M36.7392 21.2655L41.0707 21.8146M16.6219 27.8637L16.4102 27.4107M16.6219 27.8637L16.4102 27.4107M16.4102 27.4107C14.8539 28.1379 13.2968 28.8636 11.7386 29.587C9.30508 30.7168 9.305 30.7169 4.00049 33.1953L4 33.1955L20.1076 25.6836C19.5644 25.9377 19.0211 26.1916 18.4777 26.4453L18.3091 26.524C17.6761 26.8195 17.0431 27.115 16.4102 27.4107ZM41.0707 21.8146L41.387 21.883C43.7296 22.4405 45.9023 23.4445 48.1065 24.4999L48.1081 24.5007M41.0707 21.8146L48.1081 24.5007M48.1081 24.5007C48.3875 24.6332 48.6669 24.7656 48.9464 24.8979L48.1081 24.5007Z" stroke="black"/>
</g>
<g filter="url(#filter1_d_687_85)">
<path d="M40.671 0.444983C40.7809 0.467325 40.8907 0.489668 41.0039 0.512687C42.2239 0.771211 43.3898 1.11686 44.5387 1.58965C44.6518 1.63591 44.7648 1.68218 44.8814 1.72984C46.2726 2.30696 47.6276 2.95509 48.9848 3.60238C49.2619 3.73388 49.5391 3.8653 49.8164 3.99663C50.2337 4.19434 50.651 4.3921 51.0682 4.59013C52.2538 5.15287 53.4421 5.70983 54.6318 6.26434C54.8163 6.35042 55.0008 6.4365 55.1853 6.52259C55.4603 6.65089 55.7352 6.77919 56.0102 6.90745C57.2987 7.50858 58.5863 8.11169 59.8739 8.71456C60.0766 8.80946 60.2793 8.90436 60.482 8.99925C60.5828 9.04644 60.6836 9.09364 60.7875 9.14226C61.4353 9.44551 62.0831 9.74856 62.7311 10.0515C63.1751 10.259 63.6191 10.4667 64.0631 10.6743C64.2734 10.7727 64.4838 10.871 64.6942 10.9693C64.9873 11.1063 65.2804 11.2433 65.5735 11.3804C65.6576 11.4197 65.7416 11.4589 65.8282 11.4993C66.5553 11.8396 67.2769 12.1888 68 12.5372C68 15.9512 68 19.3652 68 22.8827C67.4783 22.7821 67.1737 22.7115 66.7207 22.4958C66.5544 22.4174 66.5544 22.4174 66.3847 22.3373C66.2061 22.2516 66.2061 22.2516 66.024 22.1642C65.8982 22.1046 65.7724 22.045 65.6429 21.9837C65.2314 21.7886 64.8205 21.5925 64.4096 21.3964C64.1235 21.2606 63.8374 21.1249 63.5513 20.9892C62.9772 20.7171 62.4032 20.4448 61.8294 20.1722C60.7687 19.6688 59.7049 19.1716 58.6405 18.6756C58.3642 18.5467 58.0878 18.4177 57.8115 18.2888C57.6283 18.2033 57.4452 18.1179 57.2621 18.0325C56.1757 17.5257 55.09 17.0174 54.0044 16.5091C53.8004 16.4136 53.5965 16.3182 53.3926 16.2227C52.569 15.8373 51.7455 15.4517 50.9221 15.0661C50.8188 15.0177 50.7155 14.9693 50.6091 14.9195C50.4008 14.8219 50.1925 14.7243 49.9842 14.6268C49.4707 14.3862 48.9571 14.1459 48.4432 13.9061C47.5683 13.4976 46.6939 13.0886 45.8231 12.6721C43.0472 11.3388 43.0472 11.3388 40.1133 10.3874C39.9433 10.3426 39.7732 10.2977 39.598 10.2515C37.3639 9.75489 34.8721 9.77868 32.6275 10.2027C32.5277 10.2215 32.428 10.2403 32.3253 10.2597C30.4053 10.6799 28.6116 11.5223 26.8584 12.3608C26.6479 12.4605 26.4373 12.5602 26.2266 12.6597C25.7836 12.8691 25.3408 13.0791 24.8982 13.2894C23.8756 13.7749 22.8503 14.255 21.8252 14.7356C21.4803 14.8974 21.1355 15.0593 20.7907 15.2212C19.0612 16.0334 17.3303 16.8429 15.5988 17.6513C15.5058 17.6947 15.4128 17.7381 15.317 17.7829C15.224 17.8263 15.1311 17.8697 15.0353 17.9144C14.1461 18.3296 13.2571 18.7455 12.3683 19.1616C11.9631 19.3513 11.5578 19.5408 11.1524 19.7303C10.1898 20.1803 9.22791 20.6315 8.26771 21.0861C7.81444 21.3006 7.36088 21.5146 6.9073 21.7285C6.69011 21.8311 6.47306 21.9341 6.25617 22.0373C5.95618 22.18 5.65571 22.3218 5.35512 22.4633C5.26604 22.506 5.17695 22.5487 5.08517 22.5927C4.69377 22.776 4.44161 22.8827 4 22.8827C4 19.4687 4 16.0546 4 12.5372C4.73621 12.1825 5.47242 11.8277 6.23094 11.4623C6.50719 11.3284 6.78345 11.1945 7.06808 11.0566C8.51047 10.3577 9.95751 9.6705 11.4157 9.00283C12.7943 8.37032 14.1661 7.72457 15.5381 7.07888C15.787 6.96182 16.0359 6.84476 16.2847 6.7277C17.2463 6.27538 18.2079 5.82298 19.1693 5.37029C20.4762 4.7551 21.7841 4.14218 23.0945 3.53397C23.2863 3.44495 23.478 3.35585 23.6696 3.26668C29.1482 0.718609 34.5415 -0.804933 40.671 0.444983Z" fill="#3A9948"/>
<path d="M40.5714 0.934951L40.5711 0.934901C34.5919 -0.28437 29.3149 1.19253 23.8806 3.72002C23.8805 3.72002 23.8805 3.72003 23.8805 3.72004L23.3051 3.98748L23.305 3.98749C21.9957 4.5952 20.6886 5.20772 19.3823 5.82267C18.4208 6.2754 17.4592 6.72782 16.4975 7.18015L16.4975 7.18015L15.751 7.53129L15.751 7.53133L15.7111 7.55009C14.3528 8.18934 12.992 8.82974 11.6243 9.45728L11.6239 9.45744C10.1698 10.1232 8.72622 10.8087 7.28614 11.5065C7.28613 11.5065 7.28612 11.5066 7.28612 11.5066L6.44899 11.9122L6.44796 11.9127L4.5 12.8513V12.8666V12.8872V12.9078V12.9283V12.9489V12.9695V12.99V13.0106V13.0311V13.0517V13.0722V13.0928V13.1133V13.1339V13.1544V13.175V13.1955V13.216V13.2366V13.2571V13.2776V13.2982V13.3187V13.3392V13.3597V13.3802V13.4008V13.4213V13.4418V13.4623V13.4828V13.5033V13.5238V13.5443V13.5648V13.5853V13.6058V13.6263V13.6468V13.6673V13.6878V13.7082V13.7287V13.7492V13.7697V13.7901V13.8106V13.8311V13.8516V13.872V13.8925V13.913V13.9334V13.9539V13.9743V13.9948V14.0152V14.0357V14.0561V14.0766V14.097V14.1175V14.1379V14.1584V14.1788V14.1992V14.2197V14.2401V14.2605V14.2809V14.3014V14.3218V14.3422V14.3626V14.383V14.4035V14.4239V14.4443V14.4647V14.4851V14.5055V14.5259V14.5463V14.5667V14.5871V14.6075V14.6279V14.6483V14.6687V14.6891V14.7095V14.7298V14.7502V14.7706V14.791V14.8114V14.8317V14.8521V14.8725V14.8928V14.9132V14.9336V14.9539V14.9743V14.9947V15.015V15.0354V15.0557V15.0761V15.0964V15.1168V15.1371V15.1575V15.1778V15.1982V15.2185V15.2388V15.2592V15.2795V15.2999V15.3202V15.3405V15.3608V15.3812V15.4015V15.4218V15.4421V15.4625V15.4828V15.5031V15.5234V15.5437V15.564V15.5843V15.6047V15.625V15.6453V15.6656V15.6859V15.7062V15.7265V15.7468V15.7671V15.7873V15.8076V15.8279V15.8482V15.8685V15.8888V15.9091V15.9294V15.9496V15.9699V15.9902V16.0105V16.0307V16.051V16.0713V16.0916V16.1118V16.1321V16.1523V16.1726V16.1929V16.2131V16.2334V16.2536V16.2739V16.2942V16.3144V16.3347V16.3549V16.3752V16.3954V16.4156V16.4359V16.4561V16.4764V16.4966V16.5168V16.5371V16.5573V16.5775V16.5978V16.618V16.6382V16.6585V16.6787V16.6989V16.7191V16.7394V16.7596V16.7798V16.8V16.8202V16.8404V16.8607V16.8809V16.9011V16.9213V16.9415V16.9617V16.9819V17.0021V17.0223V17.0425V17.0627V17.0829V17.1031V17.1233V17.1435V17.1637V17.1839V17.2041V17.2243V17.2444V17.2646V17.2848V17.305V17.3252V17.3454V17.3655V17.3857V17.4059V17.4261V17.4462V17.4664V17.4866V17.5068V17.5269V17.5471V17.5673V17.5874V17.6076V17.6278V17.6479V17.6681V17.6882V17.7084V17.7286V17.7487V17.7689V17.789V17.8092V17.8293V17.8495V17.8696V17.8898V17.9099V17.9301V17.9502V17.9704V17.9905V18.0106V18.0308V18.0509V18.0711V18.0912V18.1113V18.1315V18.1516V18.1717V18.1919V18.212V18.2321V18.2522V18.2724V18.2925V18.3126V18.3327V18.3529V18.373V18.3931V18.4132V18.4333V18.4535V18.4736V18.4937V18.5138V18.5339V18.554V18.5742V18.5943V18.6144V18.6345V18.6546V18.6747V18.6948V18.7149V18.735V18.7551V18.7752V18.7953V18.8154V18.8355V18.8556V18.8757V18.8958V18.9159V18.936V18.9561V18.9762V18.9963V19.0164V19.0364V19.0565V19.0766V19.0967V19.1168V19.1369V19.157V19.1771V19.1971V19.2172V19.2373V19.2574V19.2775V19.2975V19.3176V19.3377V19.3578V19.3778V19.3979V19.418V19.4381V19.4581V19.4782V19.4983V19.5183V19.5384V19.5585V19.5786V19.5986V19.6187V19.6388V19.6588V19.6789V19.6989V19.719V19.7391V19.7591V19.7792V19.7992V19.8193V19.8394V19.8594V19.8795V19.8995V19.9196V19.9396V19.9597V19.9797V19.9998V20.0198V20.0399V20.0599V20.08V20.1V20.1201V20.1401V20.1602V20.1802V20.2003V20.2203V20.2404V20.2604V20.2805V20.3005V20.3205V20.3406V20.3606V20.3807V20.4007V20.4207V20.4408V20.4608V20.4809V20.5009V20.5209V20.541V20.561V20.581V20.6011V20.6211V20.6411V20.6612V20.6812V20.7012V20.7213V20.7413V20.7613V20.7814V20.8014V20.8214V20.8415V20.8615V20.8815V20.9015V20.9216V20.9416V20.9616V20.9816V21.0017V21.0217V21.0417V21.0617V21.0818V21.1018V21.1218V21.1418V21.1618V21.1819V21.2019V21.2219V21.2419V21.2619V21.282V21.302V21.322V21.342V21.362V21.3821V21.4021V21.4221V21.4421V21.4621V21.4821V21.5021V21.5222V21.5422V21.5622V21.5822V21.6022V21.6222V21.6422V21.6623V21.6823V21.7023V21.7223V21.7423V21.7623V21.7823V21.8023V21.8224V21.8424V21.8624V21.8824V21.9024V21.9224V21.9424V21.9624V21.9824V22.0024V22.0224V22.0425V22.0625V22.0825V22.1025V22.1225V22.1425V22.1625V22.1825V22.2025V22.2225V22.2425V22.2625V22.2825V22.3006C4.60675 22.2626 4.72292 22.2102 4.87111 22.1409C4.87179 22.1406 4.87247 22.1402 4.87315 22.1399L5.13898 22.0125L5.14208 22.011C5.44252 21.8695 5.74227 21.7281 6.04135 21.5858C6.25865 21.4824 6.47609 21.3793 6.69367 21.2764L6.69402 21.2763C7.14761 21.0624 7.60089 20.8485 8.05381 20.6342C9.01504 20.179 9.97775 19.7275 10.9406 19.2774L10.9407 19.2773C11.346 19.0879 11.7512 18.8984 12.1563 18.7087C13.0452 18.2926 13.9343 17.8767 14.8237 17.4614L14.8238 17.4613L15.1055 17.3298L15.3873 17.1982C17.1186 16.3899 18.8491 15.5806 20.5781 14.7686C20.923 14.6067 21.2679 14.4447 21.6129 14.2829L21.6129 14.2829C21.6985 14.2428 21.784 14.2027 21.8695 14.1626C22.8093 13.722 23.7477 13.2821 24.6838 12.8377C25.1266 12.6273 25.5696 12.4172 26.0129 12.2076L26.0131 12.2076C26.2233 12.1083 26.4335 12.0088 26.6436 11.9093C28.3907 11.0737 30.2339 10.2056 32.2184 9.77123L32.2255 9.76968L32.2326 9.76833L32.5346 9.71138C32.5347 9.71137 32.5347 9.71136 32.5348 9.71135C34.8368 9.27652 37.3977 9.25019 39.7065 9.76342L39.7161 9.76554L39.7256 9.76805L40.2408 9.90398L40.2543 9.90753L40.2675 9.91182C43.2227 10.87 43.2435 10.8784 46.0396 12.2214M40.5714 0.934951L45.8231 12.6721M40.5714 0.934951L40.9002 1.00182L41.0039 0.512687M40.5714 0.934951L40.9022 1.00223M46.0396 12.2214L45.8231 12.6721M46.0396 12.2214C46.0393 12.2213 46.0391 12.2212 46.0388 12.2211L45.8231 12.6721M46.0396 12.2214C46.9078 12.6366 47.7801 13.0447 48.6546 13.453M45.8231 12.6721C46.6939 13.0886 47.5683 13.4976 48.4432 13.9061M48.6546 13.453L48.4432 13.9061M48.6546 13.453C49.1688 13.6929 49.6827 13.9334 50.1963 14.174L50.1964 14.174L50.8212 14.4667L51.1342 14.6133L50.9221 15.0661M48.6546 13.453C48.6547 13.453 48.6547 13.453 48.6547 13.453L48.4432 13.9061M48.4432 13.9061L50.9221 15.0661M50.9221 15.0661L50.6091 14.9195L49.9842 14.6268L50.9221 15.0661ZM50.9221 15.0661L51.1342 14.6133C51.9576 14.9989 52.781 15.3844 53.6045 15.7699L54.2163 16.0563L54.2164 16.0563L54.3158 16.1028C55.3684 16.5956 56.4206 17.0882 57.4735 17.5794L58.0229 17.8357L58.8517 18.2224M50.9221 15.0661C51.7455 15.4517 52.569 15.8373 53.3926 16.2227L54.0044 16.5091L54.1021 16.5548C55.1552 17.0479 56.2083 17.5409 57.2621 18.0325L57.8115 18.2888L58.6405 18.6756M41.0039 0.512687C42.2239 0.771211 43.3898 1.11686 44.5387 1.58965M41.0039 0.512687L40.671 0.444983C34.5415 -0.804933 29.1482 0.718609 23.6696 3.26668L44.5387 1.58965M41.0039 0.512687L40.9042 1.00265L40.9022 1.00223M44.5387 1.58965L44.8814 1.72984M44.5387 1.58965L44.8814 1.72984M40.9022 1.00223C42.0957 1.25525 43.2316 1.59243 44.3484 2.05203L44.3493 2.05242L44.6898 2.19168C44.6902 2.19184 44.6906 2.19201 44.6909 2.19217C46.0413 2.75237 47.3589 3.38086 48.6915 4.01648L48.7695 4.05368L48.7704 4.05412L49.6023 4.4485C50.0196 4.64619 50.4368 4.84388 50.8538 5.04182L51.0682 4.59013L50.8538 5.04182C52.0407 5.60523 53.2302 6.16269 54.4204 6.71746C54.4205 6.71748 54.4205 6.71751 54.4206 6.71753L54.9739 6.97569L55.7988 7.36058C56.9462 7.89583 58.0927 8.43267 59.2397 8.96968L59.6619 9.16739L60.27 9.45208L60.5755 9.59509L60.7875 9.14226L60.5755 9.5951C61.2234 9.89839 61.8713 10.2015 62.5193 10.5044L63.8512 11.1272L63.8513 11.1272L64.4825 11.4223L65.3617 11.8333L65.362 11.8335L65.6163 11.9522L40.9022 1.00223ZM44.8814 1.72984C46.2443 2.29521 47.5725 2.92873 48.9019 3.56286M44.8814 1.72984L48.9019 3.56286M66.7207 22.4958C67.0092 22.6332 67.2375 22.7117 67.5 22.7766V22.7591V22.7385V22.7179V22.6973V22.6767V22.6561V22.6355V22.6149V22.5944V22.5738V22.5532V22.5326V22.5121V22.4915V22.4709V22.4504V22.4298V22.4093V22.3887V22.3682V22.3476V22.3271V22.3065V22.286V22.2654V22.2597M66.7207 22.4958L65.6167 11.9524C66.2461 12.2469 66.8714 12.5482 67.5 12.8512M66.7207 22.4958L66.3847 22.3373M66.7207 22.4958L67.5 12.8512M67.5 22.2597C67.6465 22.3007 67.8042 22.3348 68 22.3733V12.5372L67.783 12.9876C67.6997 12.9475 67.6166 12.9074 67.5335 12.8673C67.5223 12.862 67.5112 12.8566 67.5 12.8512M67.5 22.2597V22.2449V22.2243V22.2038V22.1833V22.1627V22.1422V22.1217V22.1012V22.0806V22.0601V22.0396V22.0191V21.9986V21.9781V21.9575V21.937V21.9165V21.896V21.8755V21.855V21.8345V21.814V21.7936V21.7731V21.7526V21.7321V21.7116V21.6911V21.6706V21.6502V21.6297V21.6092V21.5887V21.5683V21.5478V21.5273V21.5069V21.4864V21.466V21.4455V21.425V21.4046V21.3841V21.3637V21.3432V21.3228V21.3024V21.2819V21.2615V21.241V21.2206V21.2002V21.1797V21.1593V21.1389V21.1185V21.098V21.0776V21.0572V21.0368V21.0164V20.996V20.9755V20.9551V20.9347V20.9143V20.8939V20.8735V20.8531V20.8327V20.8123V20.7919V20.7715V20.7512V20.7308V20.7104V20.69V20.6696V20.6492V20.6289V20.6085V20.5881V20.5677V20.5474V20.527V20.5066V20.4863V20.4659V20.4455V20.4252V20.4048V20.3845V20.3641V20.3437V20.3234V20.303V20.2827V20.2624V20.242V20.2217V20.2013V20.181V20.1607V20.1403V20.12V20.0996V20.0793V20.059V20.0387V20.0183V19.998V19.9777V19.9574V19.9371V19.9167V19.8964V19.8761V19.8558V19.8355V19.8152V19.7949V19.7746V19.7543V19.734V19.7137V19.6934V19.6731V19.6528V19.6325V19.6122V19.5919V19.5716V19.5513V19.531V19.5108V19.4905V19.4702V19.4499V19.4296V19.4094V19.3891V19.3688V19.3486V19.3283V19.308V19.2878V19.2675V19.2472V19.227V19.2067V19.1864V19.1662V19.1459V19.1257V19.1054V19.0852V19.0649V19.0447V19.0244V19.0042V18.9839V18.9637V18.9435V18.9232V18.903V18.8828V18.8625V18.8423V18.8221V18.8018V18.7816V18.7614V18.7411V18.7209V18.7007V18.6805V18.6603V18.64V18.6198V18.5996V18.5794V18.5592V18.539V18.5188V18.4986V18.4783V18.4581V18.4379V18.4177V18.3975V18.3773V18.3571V18.3369V18.3167V18.2965V18.2763V18.2562V18.236V18.2158V18.1956V18.1754V18.1552V18.135V18.1148V18.0947V18.0745V18.0543V18.0341V18.0139V17.9938V17.9736V17.9534V17.9332V17.9131V17.8929V17.8727V17.8526V17.8324V17.8122V17.7921V17.7719V17.7518V17.7316V17.7114V17.6913V17.6711V17.651V17.6308V17.6107V17.5905V17.5704V17.5502V17.5301V17.5099V17.4898V17.4696V17.4495V17.4293V17.4092V17.3891V17.3689V17.3488V17.3286V17.3085V17.2884V17.2682V17.2481V17.228V17.2078V17.1877V17.1676V17.1475V17.1273V17.1072V17.0871V17.067V17.0468V17.0267V17.0066V16.9865V16.9664V16.9463V16.9261V16.906V16.8859V16.8658V16.8457V16.8256V16.8055V16.7854V16.7652V16.7451V16.725V16.7049V16.6848V16.6647V16.6446V16.6245V16.6044V16.5843V16.5642V16.5441V16.524V16.5039V16.4838V16.4638V16.4437V16.4236V16.4035V16.3834V16.3633V16.3432V16.3231V16.303V16.283V16.2629V16.2428V16.2227V16.2026V16.1825V16.1625V16.1424V16.1223V16.1022V16.0821V16.0621V16.042V16.0219V16.0018V15.9818V15.9617V15.9416V15.9216V15.9015V15.8814V15.8614V15.8413V15.8212V15.8012V15.7811V15.761V15.741V15.7209V15.7008V15.6808V15.6607V15.6407V15.6206V15.6005V15.5805V15.5604V15.5404V15.5203V15.5003V15.4802V15.4601V15.4401V15.42V15.4V15.3799V15.3599V15.3398V15.3198V15.2997V15.2797V15.2596V15.2396V15.2196V15.1995V15.1795V15.1594V15.1394V15.1193V15.0993V15.0792V15.0592V15.0392V15.0191V14.9991V14.979V14.959V14.939V14.9189V14.8989V14.8789V14.8588V14.8388V14.8188V14.7987V14.7787V14.7587V14.7386V14.7186V14.6986V14.6785V14.6585V14.6385V14.6184V14.5984V14.5784V14.5584V14.5383V14.5183V14.4983V14.4783V14.4582V14.4382V14.4182V14.3982V14.3781V14.3581V14.3381V14.3181V14.298V14.278V14.258V14.238V14.218V14.1979V14.1779V14.1579V14.1379V14.1179V14.0978V14.0778V14.0578V14.0378V14.0178V13.9978V13.9777V13.9577V13.9377V13.9177V13.8977V13.8777V13.8576V13.8376V13.8176V13.7976V13.7776V13.7576V13.7376V13.7176V13.6975V13.6775V13.6575V13.6375V13.6175V13.5975V13.5775V13.5575V13.5375V13.5174V13.4974V13.4774V13.4574V13.4374V13.4174V13.3974V13.3774V13.3574V13.3374V13.3174V13.2974V13.2773V13.2573V13.2373V13.2173V13.1973V13.1773V13.1573V13.1373V13.1173V13.0973V13.0773V13.0573V13.0373V13.0173V12.9973V12.9773V12.9572V12.9372V12.9172V12.8972V12.8772V12.8572V12.8512M67.5 22.2597C67.3127 22.2072 67.1435 22.1434 66.9357 22.0444L66.934 22.0436L66.601 21.8866L66.3847 22.3373M66.3847 22.3373L66.598 21.8851L66.2403 21.7134L66.238 21.7123L65.8571 21.5319M66.3847 22.3373L66.024 22.1642L65.6429 21.9837M65.8571 21.5319C65.4545 21.341 65.0524 21.1491 64.6496 20.9569L64.6249 20.9451L64.624 20.9447C64.3378 20.8088 64.0516 20.6731 63.7654 20.5374C63.1915 20.2654 62.6177 19.9931 62.0439 19.7205L62.0437 19.7205C60.9814 19.2163 59.9164 18.7185 58.8517 18.2224M65.8571 21.5319L65.6429 21.9837M65.8571 21.5319L65.8569 21.5318L65.6429 21.9837M58.8517 18.2224L58.8519 18.2225L58.6405 18.6756M58.8517 18.2224L58.6405 18.6756M58.6405 18.6756C59.7049 19.1716 60.7687 19.6688 61.8294 20.1722C62.4032 20.4448 62.9772 20.7171 63.5513 20.9892C63.8374 21.1249 64.1235 21.2606 64.4096 21.3964L64.4352 21.4086C64.8376 21.6006 65.2399 21.7927 65.6429 21.9837M39.598 10.2515L40.1133 10.3874L39.598 10.2515ZM39.598 10.2515C37.3639 9.75489 34.8721 9.77868 32.6275 10.2027L32.3253 10.2597M39.598 10.2515L32.3253 10.2597M32.3253 10.2597C30.4053 10.6799 28.6116 11.5223 26.8584 12.3608C26.6479 12.4605 26.4373 12.5602 26.2266 12.6597M32.3253 10.2597L26.2266 12.6597M26.2266 12.6597C25.7836 12.8691 25.3408 13.0791 24.8982 13.2894M26.2266 12.6597L24.8982 13.2894M24.8982 13.2894C23.9611 13.7343 23.0217 14.1747 22.0823 14.6151C21.9966 14.6553 21.9109 14.6954 21.8252 14.7356M24.8982 13.2894L21.8252 14.7356M21.8252 14.7356C21.4803 14.8974 21.1355 15.0593 20.7907 15.2212L21.8252 14.7356ZM48.9019 3.56286L48.9848 3.60238M48.9019 3.56286L48.9848 3.60238M48.9848 3.60238L49.8164 3.99663L48.9848 3.60238ZM64.0631 10.6743L64.6942 10.9693L65.5735 11.3804L64.0631 10.6743ZM54.6318 6.26434L55.1853 6.52259L56.0102 6.90745C57.1579 7.44288 58.3048 7.97989 59.4518 8.5169L59.8739 8.71456L60.482 8.99925L54.6318 6.26434Z" stroke="black"/>
</g>
<g filter="url(#filter2_d_687_85)">
<path d="M36 41.1173C38.4526 41.1173 38.4526 41.1173 39.4244 41.2687C39.5973 41.2951 39.5973 41.2951 39.7738 41.322C40.6497 41.4654 41.5062 41.6613 42.362 41.8913C42.4718 41.9203 42.5816 41.9493 42.6948 41.9792C44.5887 42.518 46.3736 43.4257 48.1417 44.2637C48.3402 44.3573 48.5386 44.4509 48.7371 44.5445C49.1507 44.7395 49.5642 44.9347 49.9777 45.1301C50.8893 45.5608 51.802 45.9893 52.7146 46.418C53.2238 46.6573 53.7328 46.8967 54.2419 47.1361C55.0567 47.5193 55.8715 47.9024 56.6863 48.2855C56.7867 48.3327 56.8871 48.3799 56.9906 48.4286C57.4955 48.666 58.0005 48.9033 58.5054 49.1407C59.4388 49.5794 60.3721 50.0183 61.3052 50.4578C61.8395 50.7095 62.3738 50.9611 62.9082 51.2126C63.0106 51.2608 63.113 51.309 63.2185 51.3587C64.522 51.9723 65.8271 52.5824 67.1411 53.1749C67.8307 53.4872 67.8307 53.4872 67.9839 53.6355C67.9971 53.959 68.0013 54.2786 67.9997 54.6022C67.9997 54.7033 67.9997 54.8044 67.9997 54.9086C67.9996 55.2444 67.9985 55.5801 67.9974 55.9159C67.9972 56.148 67.997 56.3802 67.9969 56.6124C67.9963 57.2247 67.995 57.837 67.9934 58.4493C67.992 59.0736 67.9914 59.698 67.9907 60.3223C67.9892 61.5482 67.9868 62.7741 67.9839 64C67.4473 63.9046 67.0291 63.7629 66.5422 63.5215C66.398 63.4507 66.2538 63.3799 66.1052 63.307C65.9507 63.2303 65.7963 63.1536 65.6372 63.0746C65.3062 62.9123 64.975 62.7501 64.6437 62.5882C64.5605 62.5475 64.4772 62.5067 64.3915 62.4648C63.6673 62.1109 62.9373 61.7702 62.2042 61.4341C60.7011 60.7434 59.2058 60.0378 57.7108 59.3309C57.2125 59.0953 56.7142 58.8598 56.2159 58.6242C56.0931 58.5662 55.9703 58.5082 55.8439 58.4484C54.5209 57.8233 53.1963 57.2014 51.8712 56.5805C50.8918 56.1216 49.9131 55.6614 48.9353 55.1992C47.7308 54.6299 46.5247 54.0638 45.317 53.5009C45.1521 53.4239 44.9872 53.3468 44.8172 53.2675C41.8587 51.8935 39.3101 51.157 36 50.9434C36 47.7008 36 44.4582 36 41.1173Z" fill="#3A9948"/>
<path d="M36.5 41.6174C38.42 41.6182 38.4845 41.6282 39.3036 41.756C39.318 41.7582 39.3325 41.7605 39.3474 41.7628L39.3474 41.7628L39.349 41.763L39.6957 41.8159C40.5504 41.9559 41.3892 42.1476 42.2322 42.3742L42.2322 42.3742L42.2344 42.3747L42.5625 42.4614C44.169 42.919 45.6954 43.649 47.2448 44.39C47.4718 44.4985 47.6993 44.6073 47.9276 44.7155L47.9283 44.7159L48.5239 44.9967C48.5239 44.9967 48.5239 44.9968 48.5239 44.9968C48.9374 45.1917 49.3507 45.3869 49.764 45.5822L49.7641 45.5822C50.5889 45.9719 51.4145 46.3598 52.2396 46.7473L52.502 46.8706C52.502 46.8706 52.502 46.8706 52.502 46.8706C52.988 47.099 53.474 47.3275 53.9601 47.5561L54.0291 47.5886L54.2419 47.1361L54.0291 47.5886L56.4736 48.738L56.7779 48.881L58.2927 49.5932C59.2261 50.0319 60.1593 50.4707 61.0921 50.9102L61.3052 50.4578L61.0921 50.9102L62.6952 51.665L62.6952 51.665L63.0055 51.8111L63.0055 51.8111C64.3095 52.4249 65.6174 53.0364 66.9352 53.6305C67.2503 53.7732 67.403 53.8427 67.4923 53.8887C67.4988 54.1248 67.5009 54.3606 67.4997 54.5996V54.6023L67.4997 54.9084C67.4997 54.9085 67.4997 54.9085 67.4997 54.9085C67.4997 54.9086 67.4997 54.9086 67.4997 54.9087C67.4996 55.2435 67.4985 55.5784 67.4974 55.9142L67.4974 55.9153L67.4969 56.612C67.4969 56.612 67.4969 56.6121 67.4969 56.6121C67.4963 57.2239 67.495 57.8359 67.4934 58.4481V58.4482C67.4921 59.0249 67.4915 59.6016 67.4908 60.178L67.4907 60.3217C67.4894 61.337 67.4876 62.3524 67.4853 63.3678C67.2459 63.2935 67.0169 63.1987 66.7642 63.0735L66.7625 63.0727L66.3275 62.8591L66.3255 62.8581L65.8596 62.6268L65.8574 62.6257C65.5261 62.4632 65.1948 62.301 64.8632 62.139L64.6113 62.0157L64.611 62.0155C63.8816 61.6592 63.1476 61.3166 62.4126 60.9796C62.4127 60.9797 62.4128 60.9797 62.413 60.9798L36.5 41.6174ZM36.5 41.6174V41.6255V41.645V41.6646V41.6841V41.7036V41.7231V41.7426V41.7621V41.7816V41.8011V41.8206V41.8401V41.8596V41.8791V41.8986V41.9181V41.9375V41.957V41.9765V41.996V42.0155V42.0349V42.0544V42.0739V42.0934V42.1128V42.1323V42.1518V42.1712V42.1907V42.2101V42.2296V42.249V42.2685V42.2879V42.3074V42.3268V42.3463V42.3657V42.3852V42.4046V42.424V42.4435V42.4629V42.4823V42.5018V42.5212V42.5406V42.56V42.5794V42.5989V42.6183V42.6377V42.6571V42.6765V42.6959V42.7153V42.7347V42.7541V42.7735V42.7929V42.8123V42.8317V42.8511V42.8705V42.8899V42.9093V42.9287V42.9481V42.9675V42.9868V43.0062V43.0256V43.045V43.0643V43.0837V43.1031V43.1224V43.1418V43.1612V43.1805V43.1999V43.2193V43.2386V43.258V43.2773V43.2967V43.316V43.3354V43.3547V43.3741V43.3934V43.4128V43.4321V43.4514V43.4708V43.4901V43.5094V43.5288V43.5481V43.5674V43.5868V43.6061V43.6254V43.6447V43.664V43.6834V43.7027V43.722V43.7413V43.7606V43.7799V43.7992V43.8185V43.8378V43.8571V43.8764V43.8957V43.915V43.9343V43.9536V43.9729V43.9922V44.0115V44.0308V44.0501V44.0694V44.0886V44.1079V44.1272V44.1465V44.1658V44.185V44.2043V44.2236V44.2429V44.2621V44.2814V44.3007V44.3199V44.3392V44.3585V44.3777V44.397V44.4162V44.4355V44.4547V44.474V44.4932V44.5125V44.5317V44.551V44.5702V44.5895V44.6087V44.628V44.6472V44.6664V44.6857V44.7049V44.7241V44.7434V44.7626V44.7818V44.8011V44.8203V44.8395V44.8587V44.878V44.8972V44.9164V44.9356V44.9548V44.9741V44.9933V45.0125V45.0317V45.0509V45.0701V45.0893V45.1085V45.1277V45.1469V45.1661V45.1853V45.2045V45.2237V45.2429V45.2621V45.2813V45.3005V45.3197V45.3389V45.3581V45.3773V45.3965V45.4156V45.4348V45.454V45.4732V45.4924V45.5115V45.5307V45.5499V45.5691V45.5883V45.6074V45.6266V45.6458V45.6649V45.6841V45.7033V45.7224V45.7416V45.7608V45.7799V45.7991V45.8182V45.8374V45.8566V45.8757V45.8949V45.914V45.9332V45.9523V45.9715V45.9906V46.0098V46.0289V46.0481V46.0672V46.0863V46.1055V46.1246V46.1438V46.1629V46.182V46.2012V46.2203V46.2395V46.2586V46.2777V46.2968V46.316V46.3351V46.3542V46.3734V46.3925V46.4116V46.4307V46.4499V46.469V46.4881V46.5072V46.5263V46.5455V46.5646V46.5837V46.6028V46.6219V46.641V46.6601V46.6792V46.6984V46.7175V46.7366V46.7557V46.7748V46.7939V46.813V46.8321V46.8512V46.8703V46.8894V46.9085V46.9276V46.9467V46.9658V46.9849V47.004V47.0231V47.0422V47.0613V47.0803V47.0994V47.1185V47.1376V47.1567V47.1758V47.1949V47.214V47.233V47.2521V47.2712V47.2903V47.3094V47.3284V47.3475V47.3666V47.3857V47.4048V47.4238V47.4429V47.462V47.481V47.5001V47.5192V47.5383V47.5573V47.5764V47.5955V47.6145V47.6336V47.6527V47.6717V47.6908V47.7099V47.7289V47.748V47.767V47.7861V47.8052V47.8242V47.8433V47.8623V47.8814V47.9005V47.9195V47.9386V47.9576V47.9767V47.9957V48.0148V48.0338V48.0529V48.0719V48.091V48.11V48.1291V48.1481V48.1672V48.1862V48.2053V48.2243V48.2434V48.2624V48.2814V48.3005V48.3195V48.3386V48.3576V48.3766V48.3957V48.4147V48.4338V48.4528V48.4718V48.4909V48.5099V48.5289V48.548V48.567V48.586V48.6051V48.6241V48.6431V48.6622V48.6812V48.7002V48.7193V48.7383V48.7573V48.7764V48.7954V48.8144V48.8334V48.8525V48.8715V48.8905V48.9095V48.9286V48.9476V48.9666V48.9856V49.0047V49.0237V49.0427V49.0617V49.0807V49.0998V49.1188V49.1378V49.1568V49.1758V49.1949V49.2139V49.2329V49.2519V49.2709V49.2899V49.309V49.328V49.347V49.366V49.385V49.404V49.4231V49.4421V49.4611V49.4801V49.4991V49.5181V49.5371V49.5561V49.5752V49.5942V49.6132V49.6322V49.6512V49.6702V49.6892V49.7082V49.7272V49.7462V49.7652V49.7843V49.8033V49.8223V49.8413V49.8603V49.8793V49.8983V49.9173V49.9363V49.9553V49.9743V49.9933V50.0123V50.0313V50.0503V50.0693V50.0884V50.1074V50.1264V50.1454V50.1644V50.1834V50.2024V50.2214V50.2404V50.2594V50.2784V50.2974V50.3164V50.3354V50.3544V50.3734V50.3924V50.4114V50.4304V50.4494V50.4684V50.4785C39.6569 50.7344 42.1618 51.483 45.0278 52.814L45.0288 52.8144L45.5283 53.0477L36.5 41.6174ZM57.9245 58.8789L57.9245 58.8789C59.4194 59.5858 60.9124 60.2902 62.4126 60.9796L57.9245 58.8789ZM57.9245 58.8789L56.4296 58.1722L56.0575 57.9963L56.0575 57.9963M57.9245 58.8789L56.0575 57.9963M56.0575 57.9963C54.7338 57.3709 53.4086 56.7487 52.0833 56.1278C51.1043 55.669 50.1261 55.2091 49.149 54.7472L49.149 54.7471M56.0575 57.9963L49.149 54.7471M49.149 54.7471C47.9438 54.1775 46.737 53.6111 45.5286 53.0478L49.149 54.7471Z" stroke="black"/>
</g>
<g filter="url(#filter3_d_687_85)">
<path d="M19.6279 46.1229C19.6279 49.5827 19.6279 53.0426 19.6279 56.6072C17.4272 57.6718 17.4272 57.6718 15.182 58.7579C14.1412 59.2619 14.1412 59.2619 13.1005 59.7663C12.8219 59.9014 12.5431 60.0364 12.2644 60.1714C11.3423 60.6183 10.4202 61.0654 9.49857 61.5133C9.07094 61.7211 8.64323 61.9287 8.21552 62.1364C8.01315 62.2347 7.8108 62.333 7.6085 62.4315C4.38488 64 4.38488 64 4 64C4 60.5846 4 57.1691 4 53.6501C6.59389 52.28 6.59389 52.28 7.63753 51.7935C8.99955 51.1507 10.3546 50.4942 11.7084 49.8343C12.0661 49.6599 12.4238 49.4857 12.7815 49.3116C14.1873 48.6271 14.1873 48.6271 15.5926 47.9417C16.1185 47.6849 16.6445 47.4287 17.1708 47.1729C17.3653 47.0782 17.5596 46.9834 17.7538 46.8884C18.0203 46.7581 18.287 46.6284 18.5538 46.4989C18.7035 46.4259 18.8532 46.3529 19.0074 46.2777C19.3585 46.1229 19.3585 46.1229 19.6279 46.1229Z" fill="#3A9948"/>
<path d="M14.9641 58.3079L14.9643 58.3078L19.1279 56.2937V56.2734V56.2525V56.2317V56.2108V56.19V56.1691V56.1483V56.1275V56.1066V56.0858V56.065V56.0442V56.0233V56.0025V55.9817V55.9609V55.9401V55.9193V55.8984V55.8776V55.8568V55.836V55.8152V55.7944V55.7736V55.7528V55.7321V55.7113V55.6905V55.6697V55.6489V55.6281V55.6074V55.5866V55.5658V55.545V55.5243V55.5035V55.4827V55.462V55.4412V55.4204V55.3997V55.3789V55.3582V55.3374V55.3167V55.2959V55.2752V55.2545V55.2337V55.213V55.1922V55.1715V55.1508V55.13V55.1093V55.0886V55.0679V55.0472V55.0264V55.0057V54.985V54.9643V54.9436V54.9229V54.9022V54.8815V54.8608V54.8401V54.8194V54.7987V54.778V54.7573V54.7366V54.7159V54.6952V54.6745V54.6538V54.6332V54.6125V54.5918V54.5711V54.5505V54.5298V54.5091V54.4884V54.4678V54.4471V54.4265V54.4058V54.3851V54.3645V54.3438V54.3232V54.3025V54.2819V54.2612V54.2406V54.2199V54.1993V54.1787V54.158V54.1374V54.1168V54.0961V54.0755V54.0549V54.0342V54.0136V53.993V53.9724V53.9518V53.9311V53.9105V53.8899V53.8693V53.8487V53.8281V53.8075V53.7869V53.7663V53.7457V53.7251V53.7045V53.6839V53.6633V53.6427V53.6221V53.6015V53.5809V53.5603V53.5398V53.5192V53.4986V53.478V53.4574V53.4369V53.4163V53.3957V53.3751V53.3546V53.334V53.3134V53.2929V53.2723V53.2518V53.2312V53.2106V53.1901V53.1695V53.149V53.1284V53.1079V53.0873V53.0668V53.0462V53.0257V53.0052V52.9846V52.9641V52.9435V52.923V52.9025V52.8819V52.8614V52.8409V52.8204V52.7998V52.7793V52.7588V52.7383V52.7178V52.6972V52.6767V52.6562V52.6357V52.6152V52.5947V52.5742V52.5537V52.5331V52.5126V52.4921V52.4716V52.4511V52.4306V52.4101V52.3896V52.3692V52.3487V52.3282V52.3077V52.2872V52.2667V52.2462V52.2257V52.2053V52.1848V52.1643V52.1438V52.1233V52.1029V52.0824V52.0619V52.0414V52.021V52.0005V51.98V51.9596V51.9391V51.9186V51.8982V51.8777V51.8573V51.8368V51.8163V51.7959V51.7754V51.755V51.7345V51.7141V51.6936V51.6732V51.6527V51.6323V51.6118V51.5914V51.571V51.5505V51.5301V51.5096V51.4892V51.4688V51.4483V51.4279V51.4075V51.387V51.3666V51.3462V51.3258V51.3053V51.2849V51.2645V51.2441V51.2236V51.2032V51.1828V51.1624V51.142V51.1216V51.1011V51.0807V51.0603V51.0399V51.0195V50.9991V50.9787V50.9583V50.9379V50.9175V50.8971V50.8767V50.8563V50.8359V50.8155V50.7951V50.7747V50.7543V50.7339V50.7135V50.6931V50.6727V50.6523V50.6319V50.6116V50.5912V50.5708V50.5504V50.53V50.5096V50.4893V50.4689V50.4485V50.4281V50.4077V50.3874V50.367V50.3466V50.3262V50.3059V50.2855V50.2651V50.2448V50.2244V50.204V50.1837V50.1633V50.1429V50.1226V50.1022V50.0818V50.0615V50.0411V50.0208V50.0004V49.98V49.9597V49.9393V49.919V49.8986V49.8783V49.8579V49.8376V49.8172V49.7969V49.7765V49.7562V49.7358V49.7155V49.6951V49.6748V49.6544V49.6341V49.6138V49.5934V49.5731V49.5527V49.5324V49.5121V49.4917V49.4714V49.451V49.4307V49.4104V49.39V49.3697V49.3494V49.329V49.3087V49.2884V49.2681V49.2477V49.2274V49.2071V49.1867V49.1664V49.1461V49.1258V49.1054V49.0851V49.0648V49.0445V49.0242V49.0038V48.9835V48.9632V48.9429V48.9226V48.9023V48.8819V48.8616V48.8413V48.821V48.8007V48.7804V48.7601V48.7397V48.7194V48.6991V48.6788V48.6585V48.6382V48.6179V48.5976V48.5773V48.557V48.5367V48.5164V48.496V48.4757V48.4554V48.4351V48.4148V48.3945V48.3742V48.3539V48.3336V48.3133V48.293V48.2727V48.2524V48.2321V48.2118V48.1915V48.1712V48.1509V48.1307V48.1104V48.0901V48.0698V48.0495V48.0292V48.0089V47.9886V47.9683V47.948V47.9277V47.9074V47.8871V47.8668V47.8466V47.8263V47.806V47.7857V47.7654V47.7451V47.7248V47.7045V47.6843V47.664V47.6437V47.6234V47.6031V47.5828V47.5625V47.5423V47.522V47.5017V47.4814V47.4611V47.4408V47.4206V47.4003V47.38V47.3597V47.3394V47.3192V47.2989V47.2786V47.2583V47.238V47.2178V47.1975V47.1772V47.1569V47.1366V47.1164V47.0961V47.0758V47.0555V47.0353V47.015V46.9947V46.9744V46.9541V46.9339V46.9136V46.8933V46.873V46.8528V46.8325V46.8122V46.7919V46.7752L18.7729 46.9483L18.7722 46.9487C18.5055 47.0781 18.2393 47.2075 17.9736 47.3375L14.9641 58.3079ZM14.9641 58.3079C13.9236 58.8118 13.9232 58.812 12.8836 59.3158L12.8825 59.3163L12.8824 59.3164M14.9641 58.3079L12.8824 59.3164M12.8824 59.3164L12.0464 59.7215L12.0464 59.7215M12.8824 59.3164L12.0464 59.7215M12.0464 59.7215C11.1242 60.1683 10.2019 60.6156 9.28003 61.0636C8.85249 61.2713 8.42486 61.4789 7.99716 61.6866L7.99707 61.6866M12.0464 59.7215L7.99707 61.6866M7.99707 61.6866L7.38972 61.9819C5.7709 62.7696 4.97875 63.1549 4.5404 63.3454C4.52647 63.3515 4.51301 63.3573 4.5 63.3628V63.3596V63.3396V63.3196V63.2995V63.2795V63.2595V63.2395V63.2195V63.1995V63.1795V63.1594V63.1394V63.1194V63.0994V63.0794V63.0594V63.0393V63.0193V62.9993V62.9793V62.9593V62.9392V62.9192V62.8992V62.8792V62.8592V62.8391V62.8191V62.7991V62.7791V62.7591V62.739V62.719V62.699V62.679V62.6589V62.6389V62.6189V62.5989V62.5789V62.5588V62.5388V62.5188V62.4988V62.4787V62.4587V62.4387V62.4187V62.3986V62.3786V62.3586V62.3385V62.3185V62.2985V62.2785V62.2584V62.2384V62.2184V62.1983V62.1783V62.1583V62.1382V62.1182V62.0982V62.0781V62.0581V62.0381V62.018V61.998V61.978V61.9579V61.9379V61.9179V61.8978V61.8778V61.8577V61.8377V61.8177V61.7976V61.7776V61.7575V61.7375V61.7175V61.6974V61.6774V61.6573V61.6373V61.6172V61.5972V61.5771V61.5571V61.537V61.517V61.497V61.4769V61.4569V61.4368V61.4168V61.3967V61.3766V61.3566V61.3365V61.3165V61.2964V61.2764V61.2563V61.2363V61.2162V61.1962V61.1761V61.156V61.136V61.1159V61.0959V61.0758V61.0557V61.0357V61.0156V60.9955V60.9755V60.9554V60.9353V60.9153V60.8952V60.8751V60.8551V60.835V60.8149V60.7949V60.7748V60.7547V60.7346V60.7146V60.6945V60.6744V60.6543V60.6343V60.6142V60.5941V60.574V60.5539V60.5339V60.5138V60.4937V60.4736V60.4535V60.4334V60.4134V60.3933V60.3732V60.3531V60.333V60.3129V60.2928V60.2727V60.2526V60.2325V60.2125V60.1924V60.1723V60.1522V60.1321V60.112V60.0919V60.0718V60.0517V60.0316V60.0115V59.9914V59.9712V59.9511V59.931V59.9109V59.8908V59.8707V59.8506V59.8305V59.8104V59.7903V59.7701V59.75V59.7299V59.7098V59.6897V59.6695V59.6494V59.6293V59.6092V59.5891V59.5689V59.5488V59.5287V59.5086V59.4884V59.4683V59.4482V59.428V59.4079V59.3878V59.3676V59.3475V59.3274V59.3072V59.2871V59.2669V59.2468V59.2266V59.2065V59.1864V59.1662V59.1461V59.1259V59.1058V59.0856V59.0655V59.0453V59.0252V59.005V58.9848V58.9647V58.9445V58.9244V58.9042V58.884V58.8639V58.8437V58.8236V58.8034V58.7832V58.763V58.7429V58.7227V58.7025V58.6824V58.6622V58.642V58.6218V58.6016V58.5815V58.5613V58.5411V58.5209V58.5007V58.4805V58.4604V58.4402V58.42V58.3998V58.3796V58.3594V58.3392V58.319V58.2988V58.2786V58.2584V58.2382V58.218V58.1978V58.1776V58.1574V58.1372V58.117V58.0967V58.0765V58.0563V58.0361V58.0159V57.9957V57.9754V57.9552V57.935V57.9148V57.8946V57.8743V57.8541V57.8339V57.8136V57.7934V57.7732V57.7529V57.7327V57.7125V57.6922V57.672V57.6517V57.6315V57.6112V57.591V57.5708V57.5505V57.5303V57.51V57.4897V57.4695V57.4492V57.429V57.4087V57.3884V57.3682V57.3479V57.3277V57.3074V57.2871V57.2668V57.2466V57.2263V57.206V57.1857V57.1655V57.1452V57.1249V57.1046V57.0843V57.064V57.0438V57.0235V57.0032V56.9829V56.9626V56.9423V56.922V56.9017V56.8814V56.8611V56.8408V56.8205V56.8002V56.7799V56.7595V56.7392V56.7189V56.6986V56.6783V56.658V56.6376V56.6173V56.597V56.5767V56.5563V56.536V56.5157V56.4953V56.475V56.4547V56.4343V56.414V56.3936V56.3733V56.353V56.3326V56.3123V56.2919V56.2716V56.2512V56.2308V56.2105V56.1901V56.1698V56.1494V56.129V56.1087V56.0883V56.0679V56.0476V56.0272V56.0068V55.9864V55.9661V55.9457V55.9253V55.9049V55.8845V55.8641V55.8437V55.8233V55.8029V55.7825V55.7621V55.7417V55.7213V55.7009V55.6805V55.6601V55.6397V55.6193V55.5989V55.5785V55.5581V55.5376V55.5172V55.4968V55.4764V55.4559V55.4355V55.4151V55.3946V55.3742V55.3538V55.3333V55.3129V55.2925V55.272V55.2516V55.2311V55.2107V55.1902V55.1698V55.1493V55.1288V55.1084V55.0879V55.0674V55.047V55.0265V55.006V54.9856V54.9651V54.9446V54.9241V54.9036V54.8832V54.8627V54.8422V54.8217V54.8012V54.7807V54.7602V54.7397V54.7192V54.6987V54.6782V54.6577V54.6372V54.6167V54.5962V54.5756V54.5551V54.5346V54.5141V54.4936V54.473V54.4525V54.432V54.4114V54.3909V54.3704V54.3498V54.3293V54.3087V54.2882V54.2676V54.2471V54.2265V54.206V54.1854V54.1649V54.1443V54.1237V54.1032V54.0826V54.062V54.0415V54.0209V54.0003V53.9797V53.9591V53.9515C6.81786 52.7273 6.85409 52.7104 7.83525 52.253L7.84879 52.2467L7.84879 52.2467M7.99707 61.6866L7.84879 52.2467M7.84879 52.2467L7.85095 52.2457M7.84879 52.2467L7.85095 52.2457M7.85095 52.2457C9.21585 51.6015 10.5731 50.944 11.9275 50.2837C12.285 50.1094 12.6427 49.9353 13.0004 49.7611L13.0004 49.7611M7.85095 52.2457L13.0004 49.7611M13.0004 49.7611L13.0015 49.7606C14.4063 49.0766 14.4067 49.0764 15.8118 48.391L15.8119 48.391M13.0004 49.7611L15.8119 48.391M15.8119 48.391C16.3375 48.1344 16.8634 47.8783 17.3894 47.6226L17.3897 47.6225M15.8119 48.391L17.3897 47.6225M17.3897 47.6225C17.5844 47.5277 17.779 47.4327 17.9735 47.3375L17.3897 47.6225Z" stroke="black"/>
</g>
<defs>
<filter id="filter0_d_687_85" x="0" y="20.7374" width="72" height="30.8827" filterUnits="userSpaceOnUse" color-interpolation-filters="sRGB">
<feFlood flood-opacity="0" result="BackgroundImageFix"/>
<feColorMatrix in="SourceAlpha" type="matrix" values="0 0 0 0 0 0 0 0 0 0 0 0 0 0 0 0 0 0 127 0" result="hardAlpha"/>
<feOffset dy="4"/>
<feGaussianBlur stdDeviation="2"/>
<feComposite in2="hardAlpha" operator="out"/>
<feColorMatrix type="matrix" values="0 0 0 0 0 0 0 0 0 0 0 0 0 0 0 0 0 0 0.25 0"/>
<feBlend mode="normal" in2="BackgroundImageFix" result="effect1_dropShadow_687_85"/>
<feBlend mode="normal" in="SourceGraphic" in2="effect1_dropShadow_687_85" result="shape"/>
</filter>
<filter id="filter1_d_687_85" x="0" y="0" width="72" height="30.8827" filterUnits="userSpaceOnUse" color-interpolation-filters="sRGB">
<feFlood flood-opacity="0" result="BackgroundImageFix"/>
<feColorMatrix in="SourceAlpha" type="matrix" values="0 0 0 0 0 0 0 0 0 0 0 0 0 0 0 0 0 0 127 0" result="hardAlpha"/>
<feOffset dy="4"/>
<feGaussianBlur stdDeviation="2"/>
<feComposite in2="hardAlpha" operator="out"/>
<feColorMatrix type="matrix" values="0 0 0 0 0 0 0 0 0 0 0 0 0 0 0 0 0 0 0.25 0"/>
<feBlend mode="normal" in2="BackgroundImageFix" result="effect1_dropShadow_687_85"/>
<feBlend mode="normal" in="SourceGraphic" in2="effect1_dropShadow_687_85" result="shape"/>
</filter>
<filter id="filter2_d_687_85" x="32" y="41.1173" width="40" height="30.8827" filterUnits="userSpaceOnUse" color-interpolation-filters="sRGB">
<feFlood flood-opacity="0" result="BackgroundImageFix"/>
<feColorMatrix in="SourceAlpha" type="matrix" values="0 0 0 0 0 0 0 0 0 0 0 0 0 0 0 0 0 0 127 0" result="hardAlpha"/>
<feOffset dy="4"/>
<feGaussianBlur stdDeviation="2"/>
<feComposite in2="hardAlpha" operator="out"/>
<feColorMatrix type="matrix" values="0 0 0 0 0 0 0 0 0 0 0 0 0 0 0 0 0 0 0.25 0"/>
<feBlend mode="normal" in2="BackgroundImageFix" result="effect1_dropShadow_687_85"/>
<feBlend mode="normal" in="SourceGraphic" in2="effect1_dropShadow_687_85" result="shape"/>
</filter>
<filter id="filter3_d_687_85" x="0" y="46.1229" width="23.6279" height="25.8771" filterUnits="userSpaceOnUse" color-interpolation-filters="sRGB">
<feFlood flood-opacity="0" result="BackgroundImageFix"/>
<feColorMatrix in="SourceAlpha" type="matrix" values="0 0 0 0 0 0 0 0 0 0 0 0 0 0 0 0 0 0 127 0" result="hardAlpha"/>
<feOffset dy="4"/>
<feGaussianBlur stdDeviation="2"/>
<feComposite in2="hardAlpha" operator="out"/>
<feColorMatrix type="matrix" values="0 0 0 0 0 0 0 0 0 0 0 0 0 0 0 0 0 0 0.25 0"/>
<feBlend mode="normal" in2="BackgroundImageFix" result="effect1_dropShadow_687_85"/>
<feBlend mode="normal" in="SourceGraphic" in2="effect1_dropShadow_687_85" result="shape"/>
</filter>
</defs>
</svg>
